<svg xmlns="http://www.w3.org/2000/svg" width="888" height="200" viewBox="0 0 888 200">
  <path fill="none" d="M339.97 145.512h208.061v32.705H339.97z"/>
  <path fill="#88C0D0" d="M342.399 145.512h1.35l21.959 31.004h.09v-31.004h.9v32.129h-1.35l-21.959-31.004h-.09v31.004h-.9v-32.129zm38.43 8.461c6.75 0 10.395 5.805 10.395 12.104 0 6.346-3.645 12.105-10.44 12.105-6.75 0-10.395-5.76-10.395-12.105 0-6.3 3.645-12.104 10.44-12.104zm0 23.308c6.165 0 9.495-5.355 9.495-11.205 0-5.76-3.33-11.205-9.495-11.205-6.255 0-9.54 5.445-9.54 11.205.001 5.85 3.285 11.205 9.54 11.205zm15.03.36h-.9v-23.129h.9v5.715h.09c.855-3.42 3.555-6.434 9.09-6.254v.898c-6.345-.314-9.18 4.637-9.18 9.676v13.094zm28.754-32.129h.9v32.129h-.9v-6.479h-.09c-1.17 4.049-4.545 7.02-9.27 7.02-6.12 0-9.855-5.086-9.855-12.061 0-6.479 3.465-12.148 9.855-12.148 4.905 0 8.189 2.834 9.27 7.02h.09v-15.481zm-9.36 9.359c-6.345 0-8.955 5.896-8.955 11.25 0 5.939 2.97 11.16 8.955 11.16 5.939 0 9.359-5.176 9.359-11.16.001-7.154-3.734-11.25-9.359-11.25z"/>
  <path fill="#2E3440" d="M445.492 167.066c-.135 6.615 4.635 8.641 10.485 8.641 3.374 0 8.505-1.846 8.505-6.525 0-3.645-3.645-5.086-6.615-5.805l-7.154-1.756c-3.78-.943-7.245-2.744-7.245-7.738 0-3.15 2.024-9.045 11.069-9.045 6.346 0 11.925 3.42 11.88 9.988h-3.06c-.18-4.904-4.23-7.379-8.775-7.379-4.185 0-8.055 1.619-8.055 6.391 0 3.014 2.25 4.273 4.86 4.904l7.829 1.936c4.545 1.215 8.325 3.193 8.325 8.459 0 2.205-.899 9.18-12.284 9.18-7.605 0-13.185-3.42-12.825-11.25h3.06zm26.416-21.554h2.834v32.129h-2.834v-32.129zm8.01 16.019c.27-5.443 4.094-7.783 9.404-7.783 4.096 0 8.549 1.26 8.549 7.469v12.33c0 1.08.541 1.709 1.666 1.709.314 0 .674-.09.9-.18v2.385c-.631.135-1.08.18-1.846.18-2.879 0-3.33-1.619-3.33-4.049h-.09c-1.98 3.014-4.004 4.725-8.459 4.725-4.275 0-7.785-2.115-7.785-6.795 0-6.525 6.346-6.75 12.465-7.471 2.34-.27 3.645-.584 3.645-3.148 0-3.826-2.744-4.77-6.074-4.77-3.51 0-6.121 1.619-6.211 5.398h-2.834zm15.119 3.42h-.09c-.359.676-1.619.9-2.385 1.035-4.814.855-10.801.811-10.801 5.355 0 2.834 2.521 4.59 5.176 4.59 4.32 0 8.145-2.746 8.1-7.291v-3.689zm24.885-3.24c-.766-3.465-2.881-5.578-6.57-5.578-5.445 0-8.145 4.949-8.145 9.898s2.699 9.9 8.145 9.9c3.51 0 6.391-2.746 6.75-6.615h2.834c-.764 5.58-4.408 9-9.584 9-7.109 0-10.979-5.625-10.979-12.285s3.869-12.283 10.979-12.283c4.949 0 8.775 2.654 9.404 7.963h-2.834zm6.974-16.199h2.836v20.16l12.869-11.25h3.779l-9.9 8.596 10.576 14.623h-3.555l-9.18-12.645-4.59 3.826v8.818h-2.836v-32.128z"/>
  <g fill="#2E3440">
    <path d="M466.561 127.512l-43.393-55.545V56.556l48.092 62.171h25.844V31.182h-43.465l-9.396-9.399H506.5v105.729z"/>
    <path d="M421.44 21.783l43.394 55.541v15.41l-48.092-62.168h-25.843v87.545h43.464l9.399 9.401H381.5V21.783z"/>
  </g>
</svg>
